<svg xmlns="http://www.w3.org/2000/svg" width="16" height="16" viewBox="0 0 16 16" fill="none">
  <path d="M15.8999 7.46001C15.8999 7.46001 15.8999 7.45001 15.8999 7.44001L14.7099 4.25001C14.8099 4.19001 14.8899 4.08001 14.8899 3.95001C14.8899 3.76001 14.7299 3.60001 14.5399 3.60001C14.4499 3.60001 14.3799 3.63001 14.3199 3.69001L11.3399 1.22001C11.3399 1.22001 11.3299 1.22001 11.3199 1.22001L7.78988 0.720006C7.78988 0.720006 7.78988 0.710006 7.78988 0.700006C7.78988 0.370006 7.51988 0.100006 7.18988 0.100006C6.85988 0.100006 6.58988 0.370006 6.58988 0.700006C6.58988 0.750006 6.58988 0.800006 6.60988 0.850006L3.85988 1.90001C3.85988 1.90001 3.84988 1.90001 3.83988 1.91001L1.87988 3.83001C1.87988 3.83001 1.86988 3.85001 1.85988 3.86001L0.569883 8.49001C0.569883 8.49001 0.539883 8.49001 0.529883 8.49001C0.309883 8.49001 0.129883 8.67001 0.129883 8.89001C0.129883 9.11001 0.309883 9.29001 0.529883 9.29001C0.549883 9.29001 0.569883 9.29001 0.599883 9.28001L1.72988 12.61C1.72988 12.61 1.72988 12.63 1.73988 12.63L3.92988 14.82C3.92988 14.82 3.94988 14.84 3.96988 14.84L10.9799 15.23C10.9899 15.63 11.3099 15.95 11.7099 15.95C12.1099 15.95 12.4499 15.62 12.4499 15.21C12.4499 15 12.3599 14.81 12.2199 14.68L15.6999 10.38C15.6999 10.38 15.6999 10.38 15.6999 10.37C15.6999 10.37 15.6999 10.37 15.6999 10.36L15.9099 7.52001L15.8999 7.46001ZM13.6299 9.55001L14.1599 9.07001L15.4399 10.23L13.4899 10.04C13.5399 9.88001 13.5899 9.72001 13.6199 9.55001H13.6299ZM12.7999 5.17001L13.9399 6.06001L13.6599 7.18001C13.5099 6.45001 13.2099 5.77001 12.7999 5.17001ZM13.6799 9.35001C13.7199 9.14001 13.7399 8.92001 13.7599 8.70001L14.0799 8.99001L13.6799 9.35001ZM14.1699 8.90001L13.7699 8.54001C13.7699 8.47001 13.7799 8.40001 13.7799 8.32001C13.7799 8.03001 13.7499 7.75001 13.7099 7.48001L14.0499 6.14001L15.7499 7.47001L14.1699 8.90001ZM14.5299 4.31001C14.5299 4.31001 14.5699 4.31001 14.5899 4.30001L15.6999 7.28001L14.0699 6.01001L14.4999 4.31001H14.5199H14.5299ZM14.3899 4.28001L13.9699 5.93001L12.7199 4.95001L14.2599 4.17001C14.2599 4.17001 14.3399 4.26001 14.3899 4.28001ZM11.3399 1.39001L14.2399 3.79001C14.2099 3.84001 14.1899 3.90001 14.1899 3.96001C14.1899 4.00001 14.1999 4.03001 14.2099 4.06001L12.6199 4.87001L12.5299 4.80001C12.1299 4.31001 11.6399 3.88001 11.0899 3.55001L11.3499 1.39001H11.3399ZM10.4399 7.05001C10.0199 6.95001 9.67988 6.61001 9.57988 6.19001C9.36988 5.30001 10.1499 4.52001 11.0399 4.73001C11.4599 4.83001 11.7999 5.17001 11.8999 5.59001C12.1099 6.48001 11.3299 7.26001 10.4399 7.05001ZM11.4099 7.47001V11.22H10.0799V7.47001H11.4099ZM6.23988 5.22001H7.73988L9.81988 11.22H8.47988L8.02988 10H5.94988L5.49988 11.22H4.19988L6.21988 5.22001H6.23988ZM5.83988 3.25001L5.87988 3.18001L5.92988 3.21001C5.92988 3.21001 5.86988 3.24001 5.83988 3.25001ZM9.18988 2.82001L9.50988 2.59001L10.1399 3.08001C9.82988 2.97001 9.51988 2.88001 9.18988 2.82001ZM12.4499 11.93L11.8099 14.46C11.8099 14.46 11.7299 14.45 11.6899 14.45C11.6899 14.45 11.6899 14.45 11.6799 14.45L11.5099 12.81C11.8599 12.55 12.1699 12.26 12.4499 11.93ZM10.9599 3.47001C10.8299 3.40001 10.6999 3.33001 10.5699 3.27001L9.60988 2.52001L11.2099 1.40001L10.9599 3.48001V3.47001ZM7.74988 0.830006L11.1299 1.31001L9.51988 2.44001L7.67988 1.00001C7.70988 0.950006 7.73988 0.890006 7.74988 0.830006ZM7.16988 1.28001C7.33988 1.28001 7.48988 1.21001 7.59988 1.10001L9.40988 2.52001L9.00988 2.80001C8.73988 2.76001 8.45988 2.73001 8.17988 2.73001C7.42988 2.73001 6.71988 2.88001 6.06988 3.15001L5.93988 3.07001L6.93988 1.24001C7.00988 1.27001 7.08988 1.29001 7.16988 1.29001V1.28001ZM6.62988 0.950006C6.67988 1.04001 6.73988 1.12001 6.81988 1.18001L5.82988 3.01001L3.99988 1.96001L6.62988 0.960006V0.950006ZM3.85988 2.02001L5.76988 3.11001L5.64988 3.33001C5.34988 3.48001 5.06988 3.66001 4.79988 3.86001L2.03988 3.80001L3.85988 2.01001V2.02001ZM1.95988 3.93001L4.64988 3.99001C3.65988 4.80001 2.94988 5.94001 2.69988 7.25001L1.89988 7.82001L1.96988 3.94001L1.95988 3.93001ZM1.88988 7.96001L2.66988 7.41001C2.62988 7.66001 2.59988 7.92001 2.59988 8.19001L1.87988 8.40001V7.96001H1.88988ZM1.87988 8.53001L2.58988 8.32001C2.58988 8.55 2.60988 8.78001 2.63988 9.01001L1.86988 8.94001V8.53001H1.87988ZM1.68988 12.2L0.679883 9.21001C0.779883 9.16001 0.849883 9.07001 0.869883 8.96001L1.73988 9.04001L1.68988 12.2ZM1.74988 8.93001L0.889883 8.85001V8.83001L1.75988 8.58001V8.94001L1.74988 8.93001ZM1.75988 8.44001L0.859883 8.70001L1.76988 8.06001V8.45001L1.75988 8.44001ZM0.779883 8.59001C0.779883 8.59001 0.709883 8.53001 0.659883 8.51001L1.81988 4.34001L1.75988 7.90001L0.779883 8.59001ZM1.86988 9.06001L2.65988 9.13001C2.80988 10.17 3.23988 11.11 3.87988 11.88L1.80988 12.47L1.86988 9.05001V9.06001ZM3.93988 14.66L1.86988 12.59L3.96988 11.99C4.31988 12.39 4.72988 12.75 5.17988 13.04L3.92988 14.67L3.93988 14.66ZM5.28988 13.1C5.56988 13.27 5.85988 13.41 6.16988 13.53L4.16988 14.57L5.29988 13.1H5.28988ZM10.9599 15.08L4.16988 14.71L6.31988 13.59C6.89988 13.8 7.52988 13.91 8.17988 13.91C8.97988 13.91 9.74988 13.74 10.4399 13.43L11.2299 14.6C11.0899 14.71 10.9899 14.88 10.9599 15.07V15.08ZM10.5499 13.38C10.8499 13.24 11.1299 13.08 11.3899 12.89L11.5499 14.45C11.4699 14.46 11.3999 14.49 11.3299 14.53L10.5499 13.37V13.38ZM11.6899 15.43C11.5499 15.43 11.4399 15.32 11.4399 15.18C11.4399 15.04 11.5499 14.93 11.6899 14.93C11.8299 14.93 11.9399 15.04 11.9399 15.18C11.9399 15.32 11.8299 15.43 11.6899 15.43ZM12.0999 14.57C12.0499 14.53 11.9899 14.51 11.9299 14.49L12.6399 11.69C12.9899 11.23 13.2699 10.72 13.4599 10.16L15.5099 10.35L12.1099 14.56L12.0999 14.57ZM15.5799 10.18L14.2599 8.99001L15.7699 7.62001L15.5799 10.18Z" fill="#E91D2C"/>
</svg>